<svg xmlns="http://www.w3.org/2000/svg" viewBox="0 0 382 770" xml:space="preserve">
  <path fill="none"
    d="M1 359V1c66.356 0 132.712 0 199.833.347-1.168.994-3.08 1.714-5.036 2.277-19.695 5.67-36.257 15.932-49.186 32.141-12.855 16.117-19.967 34.466-20.421 54.778-.715 31.979-.193 63.985-.18 95.979 0 1.434.146 2.868.218 4.189H313c0-33.595.12-66.902-.108-100.206-.042-6.134-.936-12.393-2.39-18.361-4.573-18.756-14.084-34.701-28.497-47.654-12.118-10.891-26.046-18.2-42.034-21.557-.759-.16-1.319-1.267-1.971-1.933h145c0 69.023 0 138.045-.3 207.823-5.345-8.077-13.174-10.091-22.89-9.977-33.823.398-67.654.154-101.482.154-62.157 0-124.314-.066-186.47.164-3.728.013-8.144 1.516-11.031 3.834-6.823 5.477-8.834 14.191-5.562 21.535 3.141 7.05 8.464 11.447 18.515 11.45 96.318.029 192.636.03 288.954-.01 7.284-.003 13.841-1.782 17.752-8.845.356-.643 1.653-.764 2.514-1.128v733.907H1c0-195.263 0-390.619.398-586.437 2.135 4.386 4.142 9.157 5.54 14.101 1.715 6.061 6.034 10.867 11.023 11.428 6.512.732 7.24 1.663 6.748 8.365-2.476.885-4.999 1.485-7.183 2.695-1.103.612-2.322 2.419-2.185 3.523.19 1.53 1.39 3.876 2.55 4.14 2.056.466 4.414-.33 6.634-.68 1.37-.216 2.718-.584 4.097-.889l.88 3.03c-2.375 3.694-10.554.505-8.776 7.942 2.126 8.89 7.883.771 11.946 2.087 2.266 7.543 4.517 15.224 6.882 22.87 7.909 25.574 15.842 51.14 23.797 76.7 8.003 25.714 16.038 51.417 24.068 77.122 9.702 31.06 19.49 62.091 29.08 93.184 3.73 12.095 6.767 24.408 10.717 36.426.853 2.594 3.966 5.586 6.577 6.24 6.693 1.676 10.086-3.317 7.768-10.71-9.488-30.272-19.074-60.513-28.505-90.803-6.196-19.9-12.078-39.898-18.295-59.791-9.801-31.361-19.814-62.656-29.642-94.008-6.461-20.61-12.754-41.274-19.145-61.985 2.79-.867 5.456-1.493 7.953-2.524 2.837-1.172 3.87-3.09 2.402-6.295-1.691-3.687-3.963-2.637-6.855-1.906-2.366.598-5.477 3.334-7.86-1.362 2.797-1.16 5.656-1.864 7.886-3.453 1.334-.951 2.396-3.362 2.226-4.974-.117-1.108-2.558-2.772-3.962-2.773-2.775-.003-5.552.973-8.45 1.57-1.531-4.097-3.97-8.114 1.124-11.918 1.2-.896 1.427-3.548 1.504-5.416.43-10.488-4.722-19.62-7.473-29.333-.37-1.306-1.948-2.39-3.166-3.315-7.08-5.375-22.444-2.682-28.28 4.84-.48.619-1.34.942-2.023 1.402m375.964-5.687 3.213-10.815c-1.904-.763-3.62-1.647-5.441-2.148-18.108-4.984-33.801-14.445-47.587-26.854-15.952-14.357-27.387-31.974-33.972-52.462-1.122-3.493-2.587-4.091-5.738-4.086-44.665.076-89.33.052-133.996.052-2.667 0-5.357-.208-7.99.094-1.2.138-2.844 1.022-3.313 2.024-1.072 2.29-1.347 4.941-2.292 7.308-8.23 20.617-20.63 38.356-38.07 52.104-14.113 11.127-29.895 19.423-47.701 23.668 8.693 24.174 17.314 48.114 25.909 72.063 8.657 24.124 17.358 48.234 25.913 72.395 11.602 32.77 23.018 65.605 34.631 98.37 13.217 37.291 26.593 74.526 39.842 111.805 7.94 22.34 15.746 44.726 23.675 67.07.846 2.38 2.111 4.613 3.181 6.915l.772-.355v-5.496c0-88.83-.038-177.662.089-266.493.008-5.627.265-10.483-7.147-11.115-1.431-.122-2.74-1.565-4.123-2.367-12.106-7.023-22.01-25.512-19.163-41.206 3.672-20.246 23.037-36.786 45.54-33.904 20.015 2.563 35.456 19.89 35.665 39.577.194 18.206-10.466 32.976-27.84 39.32-3.808 1.392-4.053 3.154-4.052 6.26.038 90.33.031 180.661.031 270.992v5.61c1.18-1.442 1.745-1.86 1.942-2.41a38199.397 38199.397 0 0 0 25.03-70.152c10.682-30.035 21.325-60.084 32.013-90.117 10.312-28.977 20.699-57.926 30.981-86.913 11.246-31.704 22.389-63.445 33.617-95.155 8.609-24.31 17.28-48.6 26.38-73.58M268.5 909h24.525l-.21-3.792c-9.926-.489-15.232-7.615-20.692-13.977-7.393-8.615-14.101-17.816-21.14-26.737-4.99-6.321-10.04-12.594-15.241-19.112 12.054-9.665 23.703-19.071 35.433-28.376 4.412-3.5 8.602-7.522 14.982-7.19.684.036 1.476-1.992 2.542-3.53h-41.58l-.651 1.47c1.376.748 2.703 2.018 4.139 2.157 7.59.733 8.904 3.19 4.637 9.362-.769 1.113-1.83 2.063-2.883 2.935-7.66 6.344-15.319 12.69-23.047 18.952-5.093 4.127-10.3 8.113-16.312 12.834 0-12.845-.318-24.458.167-36.037.177-4.206 2.388-8.029 7.935-8.085 1.456-.015 2.897-1.554 4.344-2.392l-.711-1.169H173.08l-.42 1.151c.978.512 1.911 1.16 2.945 1.51 2.835.964 5.97 1.35 8.517 2.793 4.207 2.387 3.71 7.278 3.709 10.998-.01 25.063-.494 50.125-.834 75.188-.065 4.775-3.342 6.387-7.303 6.99-2.077.317-4.241.056-6.715.056l.385 3.974c17.396 0 34.383.002 51.37-.013.305 0 .61-.198 1.216-.408l-.267-3.476c-8.115-.173-12.513-2.93-12.62-8.292-.211-10.491-.112-20.99.012-31.484.013-1.087.888-2.88 1.667-3.064.988-.234 2.646.532 3.394 1.402 5.102 5.934 10.157 11.917 14.996 18.067 4.1 5.211 8.178 10.483 11.719 16.075 2.656 4.196 1.132 6.5-3.947 7.21-.914.128-1.844.148-2.621.207V909H268.5m79.51-101.486c-7.166-3.103-14.372-4.542-22.426-3.709-12.845 1.33-21.581 8.015-25.954 19.351-4.428 11.48-2.243 23.16 7.491 31.023 8.678 7.01 19.088 11.858 28.62 17.84 4.364 2.738 8.724 5.6 12.606 8.96 4.878 4.22 4.99 13.992.022 18.412-8.48 7.543-18.429 6.753-27.448 1.933-10.682-5.709-16.235-15.317-18.93-26.814-.772-3.297-1.09-3.468-4.72-2.9v40.032c1.917-.851 3.868-1.083 4.615-2.155 4.037-5.784 8.541-4.447 14.054-2.18 12.829 5.272 25.68 5.666 38.443-1.05 20.222-10.64 22.279-39.298 3.126-51.234-10.773-6.715-22.245-12.313-32.978-19.087-10.101-6.376-12.212-12.558-6.402-20.124 3.674-4.786 9.508-6.612 15.27-5.666 11.873 1.947 20.236 8.785 24.633 20.156.964 2.492 1.834 5.019 2.832 7.76 1.228-.107 2.628-.23 3.47-.302v-34.575l-1.568-.738c-.922 1.127-2.428 2.147-2.659 3.402-.806 4.37-3.501 4.7-6.949 3.76-1.527-.416-2.985-1.086-5.149-2.095M85.961 852.569c2.68 6.342 5.335 12.696 8.049 19.025 5.3 12.363 10.59 24.732 16.034 37.032.462 1.045 1.989 2.063 3.132 2.206.763.096 2.088-1.213 2.54-2.183 5.484-11.772 10.875-23.588 16.248-35.412 8.022-17.648 15.711-35.458 24.232-52.861 2.028-4.143 6.788-6.95 10.296-10.367.999-.973 2.016-1.926 3.025-2.889l-.947-.945h-33.38c.642 3.293.864 3.45 5.241 3.825 5.716.492 8.722 4.834 6.894 10.193-1.133 3.323-2.454 6.591-3.85 9.815a7668.415 7668.415 0 0 1-17.682 40.488c-.726 1.65-1.757 3.166-2.961 5.302-2.352-5.48-4.38-10.162-6.373-14.86-5.502-12.967-11.202-25.856-16.412-38.94-3.991-10.024-3.703-10.102 6.934-13.06.874-.243 1.508-1.353 2.974-2.744H60.22l-.826 1.178c1.117.88 2.22 1.779 3.354 2.636 2.045 1.546 5.044 2.625 6.012 4.671 5.82 12.306 11.177 24.832 17.2 37.89z" />
  <path fill="#FFF"
    d="M237.531 1c1.121.666 1.681 1.773 2.44 1.933 15.988 3.357 29.916 10.666 42.034 21.557 14.413 12.953 23.924 28.898 28.496 47.654 1.455 5.968 2.349 12.227 2.39 18.361.228 33.304.109 66.611.109 100.206H126.228c-.072-1.321-.217-2.755-.218-4.189-.013-31.994-.535-64 .18-95.979.454-20.312 7.566-38.661 20.421-54.778 12.93-16.209 29.491-26.471 49.186-32.14 1.957-.564 3.868-1.284 5.502-2.278C213.02 1 225.042 1 237.53 1zM383 225.532c-.86.832-2.158.953-2.514 1.596-3.91 7.063-10.468 8.842-17.752 8.845-96.318.04-192.636.039-288.954.01-10.05-.003-15.374-4.4-18.515-11.45-3.272-7.344-1.26-16.058 5.562-21.535 2.887-2.318 7.303-3.82 11.032-3.834 62.155-.23 124.312-.164 186.47-.164 33.827 0 67.658.244 101.481-.154 9.716-.114 17.545 1.9 22.89 10.443.3 5.066.3 10.42.3 16.243zM1 359.465c.683-.925 1.543-1.248 2.023-1.867 5.836-7.522 21.2-10.215 28.28-4.84 1.218.925 2.797 2.01 3.166 3.315 2.75 9.713 7.903 18.845 7.473 29.333-.077 1.868-.305 4.52-1.504 5.416-5.094 3.804-2.655 7.82-1.124 11.918 2.898-.597 5.675-1.573 8.45-1.57 1.404.001 3.845 1.665 3.962 2.773.17 1.612-.892 4.023-2.226 4.974-2.23 1.589-5.09 2.293-7.886 3.453 2.383 4.696 5.494 1.96 7.86 1.362 2.892-.731 5.164-1.781 6.855 1.906 1.469 3.204.435 5.123-2.402 6.295-2.497 1.031-5.163 1.657-7.953 2.524 6.39 20.711 12.684 41.374 19.145 61.985 9.828 31.352 19.841 62.647 29.642 94.008 6.217 19.893 12.099 39.891 18.295 59.791 9.43 30.29 19.017 60.53 28.505 90.803 2.318 7.393-1.075 12.386-7.768 10.71-2.611-.654-5.724-3.646-6.577-6.24-3.95-12.018-6.986-24.331-10.717-36.426-9.59-31.093-19.378-62.125-29.08-93.184-8.03-25.705-16.065-51.408-24.068-77.121a44733.165 44733.165 0 0 1-23.797-76.701c-2.365-7.646-4.616-15.327-6.882-22.87-4.063-1.316-9.82 6.803-11.946-2.087-1.778-7.437 6.4-4.248 8.776-7.941l-.88-3.03c-1.379.304-2.726.672-4.097.888-2.22.35-4.578 1.146-6.634.68-1.16-.264-2.36-2.61-2.55-4.14-.137-1.104 1.082-2.911 2.185-3.523 2.184-1.21 4.707-1.81 7.183-2.695.492-6.702-.236-7.633-6.748-8.365-4.989-.56-9.308-5.367-11.022-11.428-1.399-4.944-3.406-9.715-5.541-14.567C1 368.644 1 364.286 1 359.464zm375.736-5.811a14639.19 14639.19 0 0 0-26.153 73.238c-11.228 31.71-22.37 63.45-33.617 95.155-10.282 28.987-20.67 57.936-30.981 86.913-10.688 30.033-21.33 60.082-32.013 90.117a38199.397 38199.397 0 0 1-25.03 70.151c-.197.55-.761.969-1.942 2.411v-5.61c0-90.33.007-180.662-.03-270.993-.002-3.105.243-4.867 4.052-6.258 17.373-6.345 28.033-21.115 27.84-39.321-.21-19.687-15.651-37.014-35.667-39.577-22.502-2.882-41.867 13.658-45.54 33.904-2.846 15.694 7.058 34.183 19.164 41.206 1.383.802 2.692 2.245 4.123 2.367 7.412.632 7.155 5.488 7.147 11.115-.127 88.831-.089 177.662-.089 266.493v5.496l-.772.355c-1.07-2.302-2.335-4.534-3.18-6.916-7.93-22.343-15.737-44.73-23.676-67.069-13.249-37.28-26.625-74.514-39.842-111.805-11.613-32.765-23.03-65.6-34.631-98.37-8.555-24.161-17.256-48.27-25.913-72.395-8.595-23.95-17.216-47.889-25.909-72.063 17.806-4.245 33.588-12.541 47.702-23.668 17.44-13.748 29.839-31.487 38.07-52.104.944-2.367 1.219-5.017 2.291-7.308.469-1.002 2.112-1.886 3.314-2.024 2.632-.302 5.322-.094 7.989-.094 44.665 0 89.33.024 133.996-.052 3.15-.005 4.616.593 5.738 4.086 6.585 20.488 18.02 38.105 33.972 52.462 13.786 12.409 29.479 21.87 47.587 26.854 1.821.501 3.537 1.385 5.441 2.148-1.115 3.752-2.164 7.284-3.441 11.156M261 300.5v-25.89c-1.753.595-2.987.876-4.099 1.411-11.868 5.717-23.79 11.332-35.52 17.319-2.99 1.526-5.009 1.353-7.944-.139-11.74-5.968-23.682-11.537-35.567-17.216-1.085-.518-2.297-.77-3.53-1.171v46.42c13.126-6.349 25.882-12.374 38.483-18.707 3.439-1.728 6.113-1.583 9.532.14 12.58 6.337 25.348 12.3 38.645 18.693V300.5z" />
</svg>